Coordinates
version=1
nRows=19
nColumns=24
inDegrees=yes

Units are S.I. units (second, meters, Newtons, ...)
Angles are in degrees.

endheader
time	pelvis_tilt	pelvis_list	pelvis_rotation	pelvis_tx	pelvis_ty	pelvis_tz	hip_flexion_r	hip_adduction_r	hip_rotation_r	knee_angle_r	ankle_angle_r	subtalar_angle_r	mtp_angle_r	hip_flexion_l	hip_adduction_l	hip_rotation_l	knee_angle_l	ankle_angle_l	subtalar_angle_l	mtp_angle_l	lumbar_extension	lumbar_bending	lumbar_rotation
      3.85000000	    -14.72930810	     -0.38932958	      3.54787452	     -0.29216609	     -0.02682593	     -0.00934557	     36.92801563	     -1.41114579	     -5.31404113	     -9.02043320	     -8.46201755	      3.25654311	     15.81619463	      0.07131127	      2.72070482	     -1.30025229	    -13.97798661	      2.44815133	     14.78528592	     15.58776325	     12.16916951	      1.24777217	     -8.62925773
      3.85500000	    -14.79985295	     -0.45584523	      3.64893362	     -0.28606964	     -0.02736877	     -0.00903943	     36.91503462	     -1.37167349	     -5.47544446	     -9.46671152	     -8.62918719	      3.08442788	     15.76801907	      0.07149706	      2.53822554	     -1.40796670	    -14.46639256	      2.22879701	     15.28467913	     15.84701782	     12.30859996	      1.34194847	     -8.76534972
      3.86000000	    -14.86811550	     -0.56103734	      3.72483443	     -0.27994405	     -0.02786039	     -0.00869600	     36.87755626	     -1.27912447	     -5.60905321	     -9.85249931	     -8.90471107	      2.95066973	     15.71659816	      0.08664475	      2.30486362	     -1.56732836	    -14.97725332	      1.98828709	     15.81649748	     16.14987536	     12.44880816	      1.48279320	     -8.87870758
      3.86500000	    -14.93006029	     -0.69611396	      3.79117273	     -0.27381800	     -0.02826984	     -0.00835465	     36.81266293	     -1.15300259	     -5.72305168	    -10.17309749	     -9.29063948	      2.85196130	     15.65872086	      0.11502688	      2.03655615	     -1.71648060	    -15.51438602	      1.70894804	     16.32676261	     16.44155389	     12.58124947	      1.66018744	     -8.99092689
      3.87000000	    -14.98935594	     -0.87053347	      3.84063273	     -0.26768369	     -0.02859563	     -0.00802014	     36.72369008	     -0.98046915	     -5.82482453	    -10.42166750	     -9.78696513	      2.76829371	     15.58484897	      0.16886534	      1.71871800	     -1.91009924	    -16.09094819	      1.39431988	     16.88068742	     16.77636281	     12.71073637	      1.88827814	     -9.08917076
      3.87500000	    -15.02629942	     -1.06585687	      3.87719275	     -0.26159046	     -0.02880607	     -0.00760701	     36.60446284	     -0.77286864	     -5.88411401	    -10.62819306	    -10.36634027	      2.65661205	     15.48275363	      0.22710367	      1.36131905	     -2.17430389	    -16.69509815	      1.01153004	     17.49138271	     17.19064838	     12.80862005	      2.12992798	     -9.17056946
      3.88000000	    -15.07704163	     -1.31828177	      3.89244703	     -0.25546166	     -0.02893796	     -0.00724380	     36.48971990	     -0.50610541	     -5.94792157	    -10.79588635	    -11.01419560	      2.55625439	     15.32788114	      0.32118457	      0.94718311	     -2.40861626	    -17.33208648	      0.59880584	     18.04244411	     17.57078786	     12.92980174	      2.45034929	     -9.25594755
      3.88500000	    -15.11838274	     -1.59437866	      3.87816936	     -0.24934831	     -0.02898016	     -0.00684293	     36.37165449	     -0.19717979	     -5.96915766	    -10.96449184	    -11.68918287	      2.41132050	     15.09528710	      0.42929514	      0.49756548	     -2.69304501	    -18.00118970	      0.13360926	     18.62693852	     17.98073054	     13.03727063	      2.80292698	     -9.33027531
      3.89000000	    -15.14760245	     -1.89258154	      3.85557522	     -0.24321996	     -0.02893794	     -0.00643146	     36.23621611	      0.14296901	     -5.92889333	    -11.13466250	    -12.33362357	      2.18528899	     14.74036718	      0.55736712	      0.01304866	     -3.04188709	    -18.71890486	     -0.40043132	     19.22289011	     18.43435706	     13.13366028	      3.18297452	     -9.37723547
      3.89500000	    -15.13835922	     -2.19210809	      3.74370068	     -0.23703871	     -0.02879454	     -0.00591840	     36.06766685	      0.55143809	     -5.70799680	    -11.34286972	    -12.90101412	      1.86803219	     13.99473161	      0.63156635	     -0.48512315	     -3.48737022	    -19.40690616	     -1.07319209	     19.76069515	     19.06644368	     13.18847242	      3.59506014	     -9.32728031
      3.90000000	    -15.16221335	     -2.49796951	      3.68451997	     -0.23086328	     -0.02862736	     -0.00546139	     35.94396207	      0.92957341	     -5.54917719	    -11.59908826	    -13.37473002	      1.52768990	     13.13930874	      0.79436741	     -0.99853993	     -3.92263217	    -20.18439754	     -1.76482536	     20.36730500	     19.57332723	     13.28272902	      3.99338880	     -9.34127033
      3.90500000	    -15.17929509	     -2.78676518	      3.63342683	     -0.22474806	     -0.02843889	     -0.00499463	     35.83018476	      1.28929899	     -5.34840479	    -11.90220124	    -13.76186265	      1.11516094	     12.28338267	      0.99468147	     -1.50840228	     -4.40638918	    -21.03347887	     -2.50106112	     20.99603283	     20.06374279	     13.35662204	      4.37014446	     -9.37235429
      3.91000000	    -15.20036166	     -3.04443463	      3.58862808	     -0.21853997	     -0.02819736	     -0.00447777	     35.71668173	      1.62408094	     -5.15798644	    -12.22820852	    -14.04354182	      0.62183933	     11.39893566	      1.21207980	     -2.00633247	     -4.94095633	    -21.89540874	     -3.37051300	     21.68315727	     20.57294225	     13.44993490	      4.70456651	     -9.38430109
      3.91500000	    -15.22058184	     -3.29019829	      3.51850643	     -0.21232095	     -0.02794262	     -0.00393166	     35.60921598	      1.96243900	     -4.93486533	    -12.58060829	    -14.22026298	      0.12567885	     10.48992944	      1.45351206	     -2.50810574	     -5.54325186	    -22.79627981	     -4.33407063	     22.33654601	     21.13696320	     13.54034553	      5.03258645	     -9.36751064
      3.92000000	    -15.22525610	     -3.52518277	      3.38975351	     -0.20609575	     -0.02763263	     -0.00334766	     35.48425508	      2.32896267	     -4.60263851	    -12.95540781	    -14.24312072	     -0.31649664	      9.21106759	      1.68826033	     -3.00980678	     -6.22902171	    -23.69548913	     -5.48821847	     22.80789252	     21.93404617	     13.60395093	      5.37277688	     -9.28507319
      3.92500000	    -15.26142056	     -3.70616309	      3.31009765	     -0.19991710	     -0.02735766	     -0.00270768	     35.40277978	      2.61477056	     -4.41012575	    -13.34142846	    -14.21895426	     -0.79297938	      8.44375123	      2.01777596	     -3.49178177	     -6.95773747	    -24.69248062	     -6.69103139	     23.47974208	     22.59392167	     13.69860701	      5.62795460	     -9.22983427
      3.93000000	    -15.28916190	     -3.86825980	      3.22415788	     -0.19375888	     -0.02705342	     -0.00203682	     35.30639612	      2.88344211	     -4.23404691	    -13.72304118	    -14.10102678	     -1.15562774	      7.80307769	      2.37260857	     -3.97908954	     -7.74458747	    -25.72478014	     -8.06068075	     24.07701458	     23.39310545	     13.77888628	      5.85715172	     -9.18392929
      3.93500000	    -15.33203413	     -4.00595177	      3.12350469	     -0.18764343	     -0.02674776	     -0.00130617	     35.22231916	      3.13836333	     -4.07643638	    -14.09566554	    -13.93434200	     -1.46760816	      7.35418910	      2.78200927	     -4.47092674	     -8.58318602	    -26.80528019	     -9.57738101	     24.67289295	     24.24751257	     13.86346104	      6.06413882	     -9.10193618
      3.94000000	    -15.37126869	     -4.12348477	      3.01573770	     -0.18159183	     -0.02642520	     -0.00052471	     35.13043594	      3.37806530	     -3.93550843	    -14.46311898	    -13.70108208	     -1.66421407	      7.06483306	      3.22871261	     -4.96906864	     -9.44936619	    -27.93365582	    -11.24412488	     25.19672254	     25.15488870	     13.93237851	      6.24111845	     -9.01978538
